# Blender v3.5.0 OBJ File: ''
# www.blender.org
mtllib player.mtl
o 立方体
v 5.000000 -1.000000 -2.000000
v 1.000000 1.000000 -1.600000
v 1.000000 -1.000000 4.000000
v 1.000000 1.000000 0.000000
v 1.000000 0.000000 -2.000000
v 1.000000 0.000000 1.000000
v 5.000000 -1.000000 -1.000000
v 1.000000 1.000000 -1.000000
v 1.000000 0.000000 -1.000000
v 0.000000 -1.000000 4.000000
v 0.000000 1.000000 0.000000
v 0.000000 -1.000000 -2.000000
v 0.000000 1.000000 -1.600000
v 0.000000 0.000000 -2.000000
v 0.000000 0.000000 1.000000
v 0.000000 1.000000 -1.000000
v 0.000000 -1.000000 -1.000000
v 1.000000 0.000000 0.000000
v -5.000000 -1.000000 -2.000000
v -1.000000 1.000000 -1.600000
v -1.000000 -1.000000 4.000000
v -1.000000 1.000000 0.000000
v -1.000000 0.000000 -2.000000
v -1.000000 0.000000 1.000000
v -5.000000 -1.000000 -1.000000
v -1.000000 1.000000 -1.000000
v -1.000000 0.000000 -1.000000
v -1.000000 0.000000 0.000000
vt 0.079320 0.843965
vt 0.148833 0.774451
vt 0.148833 0.843965
vt 0.996731 0.350835
vt 0.923214 0.420348
vt 0.923214 0.350835
vt 0.361567 0.281322
vt 0.403119 0.350835
vt 0.361567 0.350835
vt 0.854955 0.350835
vt 0.854955 0.698400
vt 0.286296 0.281321
vt 0.217044 0.281321
vt 0.349529 0.003269
vt 0.424800 0.281322
vt 0.418781 0.003269
vt 0.292315 0.281321
vt 0.292315 0.350835
vt 0.148833 0.732744
vt 0.079320 0.774451
vt 0.079320 0.704938
vt 0.848417 0.281322
vt 0.500851 0.350835
vt 0.500851 0.003269
vt 0.003269 0.350835
vt 0.003269 0.281321
vt 0.431338 0.003269
vt 0.970261 0.841150
vt 0.894990 0.910663
vt 0.894990 0.841150
vt 0.797869 0.913478
vt 0.797869 0.843965
vt 0.867382 0.843965
vt 0.072782 0.843965
vt 0.003269 0.774451
vt 0.072782 0.774451
vt 0.923214 0.281321
vt 0.361567 0.420348
vt 0.286296 0.420348
vt 0.349529 0.698400
vt 0.217044 0.420348
vt 0.424800 0.420348
vt 0.418781 0.698400
vt 0.292315 0.420348
vt 0.003269 0.843965
vt 0.072782 0.885672
vt 0.003269 0.913478
vt 0.848417 0.420348
vt 0.848417 0.350835
vt 0.003269 0.420348
vt 0.431338 0.698400
vt 0.500851 0.698400
vt 0.970261 0.980176
vt 0.894990 0.980176
vt 0.798073 0.978667
vt 0.867644 0.909212
vt 0.867586 0.978725
vt 0.996731 0.420348
vt 0.403119 0.281322
vt 0.355548 0.281322
vt 0.217044 0.350835
vt 0.431338 0.350835
vt 0.970261 0.910663
vt 0.996731 0.281321
vt 0.403119 0.420348
vt 0.854955 0.003269
vt 0.355548 0.420348
vn 1.0000 0.0000 0.0000
vn 0.0000 0.3714 -0.9285
vn 0.0000 1.0000 0.0000
vn 0.0000 0.0000 -1.0000
vn 0.2425 0.9701 0.0000
vn 0.0000 -1.0000 0.0000
vn 0.0000 0.9487 0.3162
vn 0.0000 0.7071 0.7071
vn -1.0000 0.0000 0.0000
vn -0.2425 0.9701 0.0000
vn 0.3676 0.8823 0.2941
vn -0.3676 0.8823 0.2941
usemtl マテリアル
s off
f 18/1/1 8/2/1 4/3/1
f 13/4/2 5/5/2 14/6/2
f 8/7/3 13/8/3 16/9/3
f 12/10/4 5/5/4 1/11/4
f 18/12/5 6/13/5 7/14/5
f 5/15/5 7/14/5 1/16/5
f 4/17/3 16/9/3 11/18/3
f 2/19/1 9/20/1 5/21/1
f 3/22/6 17/23/6 7/24/6
f 6/13/7 10/25/7 3/26/7
f 17/23/6 1/27/6 7/24/6
f 4/28/8 15/29/8 6/30/8
f 6/31/1 18/32/1 4/33/1
f 26/34/9 28/35/9 22/36/9
f 23/37/2 13/4/2 14/6/2
f 13/8/3 26/38/3 16/9/3
f 12/10/4 23/37/4 14/6/4
f 28/39/10 25/40/10 24/41/10
f 25/40/10 23/42/10 19/43/10
f 16/9/3 22/44/3 11/18/3
f 27/45/9 20/46/9 23/47/9
f 21/48/6 17/23/6 10/49/6
f 10/25/7 24/41/7 21/50/7
f 19/51/6 17/23/6 25/52/6
f 15/29/8 22/53/8 24/54/8
f 24/55/9 22/56/9 28/57/9
f 18/1/1 9/20/1 8/2/1
f 13/4/2 2/58/2 5/5/2
f 8/7/3 2/59/3 13/8/3
f 12/10/4 14/6/4 5/5/4
f 3/26/11 7/14/11 6/13/11
f 7/14/5 9/60/5 18/12/5
f 5/15/5 9/60/5 7/14/5
f 4/17/3 8/7/3 16/9/3
f 2/19/1 8/2/1 9/20/1
f 3/22/6 10/49/6 17/23/6
f 6/13/7 15/61/7 10/25/7
f 17/23/6 12/62/6 1/27/6
f 4/28/8 11/63/8 15/29/8
f 26/34/9 27/45/9 28/35/9
f 23/37/2 20/64/2 13/4/2
f 13/8/3 20/65/3 26/38/3
f 12/10/4 19/66/4 23/37/4
f 27/67/10 25/40/10 28/39/10
f 25/40/12 21/50/12 24/41/12
f 25/40/10 27/67/10 23/42/10
f 16/9/3 26/38/3 22/44/3
f 27/45/9 26/34/9 20/46/9
f 21/48/6 25/52/6 17/23/6
f 10/25/7 15/61/7 24/41/7
f 19/51/6 12/62/6 17/23/6
f 15/29/8 11/63/8 22/53/8
