# Blender v3.5.0 OBJ File: 'AL3夏課題.blend'
# www.blender.org
mtllib enemy.mtl
o 立方体_立方体.001
v -0.700000 -0.700000 0.700000
v -0.700000 0.700000 0.700000
v -0.700000 -0.700000 -0.700000
v -0.700000 0.700000 -0.700000
v -1.001619 -0.956971 0.000000
v -1.001619 0.956971 0.000000
v 0.000000 -0.952421 -0.937259
v 0.000000 0.952421 -0.937259
v 0.000000 -0.952421 0.937259
v 0.000000 0.952421 0.937259
v 0.000000 1.299910 0.000000
v 0.000000 -1.299910 0.000000
v -0.350000 -0.798119 -0.794732
v -0.350000 0.798119 0.794732
v -0.500000 -1.094164 0.000000
v -0.350000 0.798119 -0.794732
v -0.350000 -0.798119 0.794732
v -0.500000 1.094164 0.000000
v -1.000000 0.000000 1.000000
v -1.000000 0.000000 -1.000000
v -1.300000 0.000000 0.000000
v 0.000000 0.000000 1.300000
v 0.000000 0.000000 -1.300000
v -0.500000 0.000000 -1.150000
v -0.500000 0.000000 1.150000
v -0.852062 0.370622 0.863237
v -0.852062 0.370622 -0.863237
v -1.153015 0.493300 0.000000
v 0.000000 0.492533 1.137300
v 0.000000 0.492533 -1.137300
v -0.437868 0.391024 -0.984738
v -0.437868 0.391024 0.984738
v -0.852062 -0.370622 -0.863237
v -1.153015 -0.493300 0.000000
v 0.000000 -0.492533 1.137300
v 0.000000 -0.492533 -1.137300
v -0.437868 -0.391024 -0.984738
v -0.437868 -0.391024 0.984738
v -0.852062 -0.370622 0.863237
v -0.860728 0.796080 -0.359901
v -0.860728 -0.796080 -0.359901
v 0.000000 -1.102983 -0.484057
v 0.000000 1.102983 -0.484057
v -0.437868 -0.913726 -0.378885
v -0.437868 0.913726 -0.378885
v -1.150000 0.000000 -0.500000
v -1.041380 0.397324 -0.451783
v -1.041380 -0.397324 -0.451783
v -0.860728 -0.796080 0.359901
v -0.860728 0.796080 0.359901
v 0.000000 1.102983 0.484057
v 0.000000 -1.102983 0.484057
v -0.437868 -0.913726 0.378885
v -0.437868 0.913726 0.378885
v -1.150000 0.000000 0.500000
v -1.041380 0.397324 0.451783
v -1.041380 -0.397324 0.451783
v -0.490938 0.133618 -1.083570
v -0.490938 0.533618 -0.886186
v -0.490938 0.133618 -1.274291
v -0.490938 0.533618 -1.274291
v -0.330938 0.133618 -1.132432
v -0.330938 0.533618 -0.933049
v -0.330938 0.133618 -1.274291
v -0.330938 0.533618 -1.274291
v 0.700000 -0.700000 0.700000
v 0.700000 0.700000 0.700000
v 0.700000 -0.700000 -0.700000
v 0.700000 0.700000 -0.700000
v 1.001619 -0.956971 0.000000
v 1.001619 0.956971 0.000000
v 0.350000 -0.798119 -0.794732
v 0.350000 0.798119 0.794732
v 0.500000 -1.094164 0.000000
v 0.350000 0.798119 -0.794732
v 0.350000 -0.798119 0.794732
v 0.500000 1.094164 0.000000
v 1.000000 0.000000 1.000000
v 1.000000 0.000000 -1.000000
v 1.300000 0.000000 0.000000
v 0.500000 0.000000 -1.150000
v 0.500000 0.000000 1.150000
v 0.852062 0.370622 0.863237
v 0.852062 0.370622 -0.863237
v 1.153015 0.493300 0.000000
v 0.437868 0.391024 -0.984738
v 0.437868 0.391024 0.984738
v 0.852062 -0.370622 -0.863237
v 1.153015 -0.493300 0.000000
v 0.437868 -0.391024 -0.984738
v 0.437868 -0.391024 0.984738
v 0.852062 -0.370622 0.863237
v 0.860728 0.796080 -0.359901
v 0.860728 -0.796080 -0.359901
v 0.437868 -0.913726 -0.378885
v 0.437868 0.913726 -0.378885
v 1.150000 0.000000 -0.500000
v 1.041380 0.397324 -0.451783
v 1.041380 -0.397324 -0.451783
v 0.860728 -0.796080 0.359901
v 0.860728 0.796080 0.359901
v 0.437868 -0.913726 0.378885
v 0.437868 0.913726 0.378885
v 1.150000 0.000000 0.500000
v 1.041380 0.397324 0.451783
v 1.041380 -0.397324 0.451783
v 0.490938 0.133618 -1.083570
v 0.490938 0.533618 -0.886186
v 0.490938 0.133618 -1.274291
v 0.490938 0.533618 -1.274291
v 0.330938 0.133618 -1.132432
v 0.330938 0.533618 -0.933049
v 0.330938 0.133618 -1.274291
v 0.330938 0.533618 -1.274291
vt 0.311207 0.303018
vt 0.231437 0.312849
vt 0.275899 0.262066
vt 0.245530 0.590724
vt 0.180360 0.547860
vt 0.239913 0.517784
vt 0.107756 0.579841
vt 0.175850 0.613005
vt 0.256083 0.358160
vt 0.184164 0.403766
vt 0.180416 0.349241
vt 0.126534 0.506957
vt 0.113061 0.424671
vt 0.183690 0.464683
vt 0.769445 0.116168
vt 0.686062 0.076953
vt 0.757960 0.064550
vt 0.475006 0.766564
vt 0.413046 0.716916
vt 0.489032 0.705846
vt 0.167378 0.300688
vt 0.127430 0.212066
vt 0.206667 0.232603
vt 0.429554 0.675963
vt 0.493855 0.661960
vt 0.750980 0.005981
vt 0.680526 0.005680
vt 0.095825 0.344923
vt 0.090392 0.404699
vt 0.093543 0.663813
vt 0.172403 0.683812
vt 0.246811 0.673235
vt 0.517324 0.329773
vt 0.412981 0.301206
vt 0.460337 0.260563
vt 0.328096 0.149841
vt 0.241175 0.166927
vt 0.261738 0.114200
vt 0.159278 0.127426
vt 0.196796 0.062926
vt 0.456419 0.595230
vt 0.507335 0.493116
vt 0.537340 0.577696
vt 0.450247 0.365628
vt 0.359749 0.333410
vt 0.583380 0.473308
vt 0.659353 0.527047
vt 0.600105 0.543617
vt 0.319257 0.658789
vt 0.309530 0.571751
vt 0.323072 0.206429
vt 0.402615 0.472798
vt 0.424359 0.530430
vt 0.299803 0.484714
vt 0.609165 0.412843
vt 0.659425 0.453501
vt 0.652183 0.595993
vt 0.608319 0.620844
vt 0.341383 0.267046
vt 0.377130 0.230191
vt 0.565236 0.657969
vt 0.279782 0.059016
vt 0.232666 0.005680
vt 0.330022 0.100887
vt 0.406811 0.191527
vt 0.546301 0.421185
vt 0.679821 0.783205
vt 0.730397 0.855893
vt 0.670786 0.851619
vt 0.812753 0.008354
vt 0.828960 0.050817
vt 0.330022 0.352260
vt 0.232928 0.431068
vt 0.384807 0.625666
vt 0.037747 0.556125
vt 0.005680 0.644233
vt 0.741758 0.772274
vt 0.796414 0.858752
vt 0.742793 0.854637
vt 0.562936 0.708378
vt 0.374655 0.850238
vt 0.406804 0.785150
vt 0.406804 0.852466
vt 0.084364 0.796785
vt 0.111446 0.861643
vt 0.084364 0.863575
vt 0.552468 0.847932
vt 0.528556 0.782273
vt 0.552468 0.780615
vt 0.005780 0.798467
vt 0.034560 0.872632
vt 0.005680 0.876401
vt 0.716238 0.363023
vt 0.740590 0.391259
vt 0.716238 0.392210
vt 0.158519 0.854248
vt 0.182871 0.795498
vt 0.182871 0.847721
vt 0.873793 0.586889
vt 0.900658 0.667622
vt 0.836356 0.653619
vt 0.225637 0.727269
vt 0.148559 0.766149
vt 0.159949 0.722149
vt 0.087863 0.716387
vt 0.087431 0.775368
vt 0.807775 0.858935
vt 0.855234 0.772274
vt 0.855234 0.844350
vt 0.792872 0.569355
vt 0.721893 0.612502
vt 0.730107 0.535276
vt 0.725954 0.229386
vt 0.792895 0.198041
vt 0.469659 0.160734
vt 0.386743 0.133366
vt 0.465419 0.101134
vt 0.056381 0.258384
vt 0.067804 0.179679
vt 0.009443 0.228241
vt 0.005680 0.159079
vt 0.526442 0.128132
vt 0.534547 0.070402
vt 0.819653 0.268388
vt 0.855206 0.758222
vt 0.767276 0.700036
vt 0.841179 0.697504
vt 0.572175 0.369139
vt 0.650886 0.336675
vt 0.623075 0.401483
vt 0.528740 0.214313
vt 0.931128 0.245037
vt 0.994319 0.183671
vt 0.994319 0.271250
vt 0.928608 0.171924
vt 0.994319 0.096092
vt 0.783910 0.412843
vt 0.822877 0.484775
vt 0.746831 0.464967
vt 0.585009 0.164320
vt 0.582432 0.266404
vt 0.933816 0.331991
vt 0.881150 0.304053
vt 0.617529 0.300512
vt 0.082608 0.106493
vt 0.005938 0.085560
vt 0.669165 0.246022
vt 0.905853 0.522088
vt 0.945405 0.617325
vt 0.868603 0.221760
vt 0.605197 0.041765
vt 0.604302 0.104856
vt 0.856885 0.157520
vt 0.920718 0.089780
vt 0.815401 0.351662
vt 0.760440 0.311040
vt 0.927597 0.464457
vt 0.859673 0.417349
vt 0.917166 0.708574
vt 0.937469 0.760913
vt 0.845594 0.087533
vt 0.764976 0.649628
vt 0.670859 0.518706
vt 0.670786 0.445159
vt 0.664086 0.142294
vt 0.647540 0.203035
vt 0.015032 0.712046
vt 0.450660 0.040331
vt 0.532542 0.005680
vt 0.361208 0.067265
vt 0.678028 0.587651
vt 0.017447 0.783492
vt 0.451437 0.782843
vt 0.483586 0.847932
vt 0.418165 0.852466
vt 0.045921 0.863575
vt 0.073003 0.794853
vt 0.073003 0.861643
vt 0.597438 0.850261
vt 0.621350 0.784602
vt 0.621350 0.851919
vt 0.632811 0.858394
vt 0.656826 0.784213
vt 0.656826 0.862146
vt 0.704878 0.369549
vt 0.680526 0.384732
vt 0.680526 0.363023
vt 0.122807 0.808551
vt 0.147159 0.854248
vt 0.122807 0.860774
vt 0.273365 0.413310
vt 0.062951 0.471146
vt 0.684300 0.145385
vt 0.392743 0.769254
vt 0.098531 0.294076
vt 0.383170 0.401483
vt 0.470539 0.425690
vt 0.730397 0.772274
vt 0.341383 0.567744
vt 0.796414 0.790570
vt 0.565314 0.769254
vt 0.341383 0.780615
vt 0.111446 0.794853
vt 0.494947 0.851919
vt 0.034560 0.794853
vt 0.740590 0.369549
vt 0.158519 0.794853
vt 0.201204 0.783492
vt 0.808288 0.772375
vt 0.764898 0.760913
vt 0.988829 0.559402
vt 0.483586 0.780615
vt 0.045921 0.796785
vt 0.563829 0.780615
vt 0.632711 0.780615
vt 0.704878 0.398737
vt 0.147159 0.794853
vn -0.7529 0.5365 -0.3812
vn -0.2635 0.5233 0.8104
vn -0.3346 0.8873 0.3174
vn -0.2581 0.8551 -0.4496
vn -0.8398 0.4503 0.3032
vn -0.4432 -0.7789 -0.4436
vn -0.4399 -0.8369 0.3256
vn -0.3853 0.4573 -0.8015
vn -0.2635 0.5233 -0.8104
vn -0.2640 -0.8883 0.3757
vn -0.2327 -0.8507 -0.4714
vn -0.3562 0.8655 -0.3521
vn -0.4797 0.8327 0.2766
vn -0.3853 0.4573 0.8015
vn -0.3742 -0.2909 0.8805
vn -0.2752 -0.4110 -0.8691
vn -0.3742 -0.2909 -0.8805
vn -0.9186 -0.2737 0.2851
vn -0.2752 -0.4110 0.8691
vn -0.8632 -0.2864 -0.4158
vn -0.2620 0.4107 0.8733
vn -0.2602 0.4240 -0.8675
vn -0.2620 0.4107 -0.8733
vn -0.9183 0.2845 0.2755
vn -0.2602 0.4240 0.8675
vn -0.8607 0.4388 -0.2582
vn -0.7508 -0.4513 -0.4823
vn -0.3495 -0.4572 0.8178
vn -0.8465 -0.2764 0.4550
vn -0.4814 -0.3496 -0.8037
vn -0.3495 -0.4572 -0.8178
vn -0.4814 -0.3496 0.8037
vn -0.8465 -0.2764 -0.4550
vn -0.9183 0.2845 -0.2755
vn -0.9186 -0.2737 -0.2851
vn -0.4797 0.8327 -0.2766
vn -0.2640 -0.8883 -0.3757
vn -0.4399 -0.8369 -0.3256
vn -0.3346 0.8873 -0.3174
vn -0.8398 0.4503 -0.3032
vn -0.7508 -0.4513 0.4823
vn -0.8607 0.4388 0.2582
vn -0.8632 -0.2864 0.4158
vn -0.3562 0.8655 0.3521
vn -0.2327 -0.8507 0.4714
vn -0.4432 -0.7789 0.4436
vn -0.7529 0.5365 0.3812
vn -0.2581 0.8551 0.4496
vn -1.0000 0.0000 0.0000
vn 0.0000 0.0000 -1.0000
vn 1.0000 0.0000 0.0000
vn 0.2636 -0.4303 0.8633
vn 0.0000 -1.0000 0.0000
vn 0.0000 1.0000 0.0000
vn 0.7508 0.4513 -0.4823
vn 0.3495 0.4572 0.8178
vn 0.2640 0.8883 0.3757
vn 0.2581 0.8551 -0.4496
vn 0.8398 0.4503 0.3032
vn 0.4432 -0.7789 -0.4436
vn 0.4399 -0.8369 0.3256
vn 0.3853 0.4573 -0.8015
vn 0.2635 0.5233 -0.8104
vn 0.2640 -0.8883 0.3757
vn 0.2581 -0.8551 -0.4496
vn 0.4432 0.7789 -0.4436
vn 0.4399 0.8369 0.3256
vn 0.4814 0.3496 0.8037
vn 0.3742 -0.2909 0.8805
vn 0.2602 -0.4240 -0.8675
vn 0.2620 -0.4107 -0.8733
vn 0.9183 -0.2845 0.2755
vn 0.2752 -0.4110 0.8691
vn 0.8632 -0.2864 -0.4158
vn 0.3742 0.2909 0.8805
vn 0.2602 0.4240 -0.8675
vn 0.2620 0.4107 -0.8733
vn 0.9183 0.2845 0.2755
vn 0.2752 0.4110 0.8691
vn 0.8632 0.2864 -0.4158
vn 0.7508 -0.4513 -0.4823
vn 0.3495 -0.4572 0.8178
vn 0.8398 -0.4503 0.3032
vn 0.3853 -0.4573 -0.8015
vn 0.2635 -0.5233 -0.8104
vn 0.4814 -0.3496 0.8037
vn 0.8465 -0.2764 -0.4550
vn 0.9186 0.2737 -0.2851
vn 0.9186 -0.2737 -0.2851
vn 0.4797 0.8327 -0.2766
vn 0.3346 -0.8873 -0.3174
vn 0.4797 -0.8327 -0.2766
vn 0.3346 0.8873 -0.3174
vn 0.8465 0.2764 -0.4550
vn 0.7529 -0.5365 0.3812
vn 0.8607 0.4388 0.2582
vn 0.8607 -0.4388 0.2582
vn 0.3562 0.8655 0.3521
vn 0.2327 -0.8507 0.4714
vn 0.3562 -0.8655 0.3521
vn 0.7529 0.5365 0.3812
vn 0.2327 0.8507 0.4714
vn -0.2636 -0.4303 0.8633
vn -0.7508 0.4513 -0.4823
vn -0.3495 0.4572 0.8178
vn -0.2640 0.8883 0.3757
vn -0.2327 0.8507 -0.4714
vn -0.8465 0.2764 0.4550
vn -0.3562 -0.8655 -0.3521
vn -0.4797 -0.8327 0.2766
vn -0.4814 0.3496 -0.8037
vn -0.3495 0.4572 -0.8178
vn -0.3346 -0.8873 0.3174
vn -0.2581 -0.8551 -0.4496
vn -0.4432 0.7789 -0.4436
vn -0.4399 0.8369 0.3256
vn -0.4814 0.3496 0.8037
vn -0.2620 -0.4107 0.8733
vn -0.2602 -0.4240 -0.8675
vn -0.2620 -0.4107 -0.8733
vn -0.9183 -0.2845 0.2755
vn -0.2602 -0.4240 0.8675
vn -0.8607 -0.4388 -0.2582
vn -0.3742 0.2909 0.8805
vn -0.2752 0.4110 -0.8691
vn -0.3742 0.2909 -0.8805
vn -0.9186 0.2737 0.2851
vn -0.2752 0.4110 0.8691
vn -0.8632 0.2864 -0.4158
vn -0.7529 -0.5365 -0.3812
vn -0.2635 -0.5233 0.8104
vn -0.8398 -0.4503 0.3032
vn -0.3853 -0.4573 -0.8015
vn -0.2635 -0.5233 -0.8104
vn -0.3853 -0.4573 0.8015
vn -0.8398 -0.4503 -0.3032
vn -0.9186 0.2737 -0.2851
vn -0.9183 -0.2845 -0.2755
vn -0.4399 0.8369 -0.3256
vn -0.3346 -0.8873 -0.3174
vn -0.4797 -0.8327 -0.2766
vn -0.2640 0.8883 -0.3757
vn -0.8465 0.2764 -0.4550
vn -0.7529 -0.5365 0.3812
vn -0.8632 0.2864 0.4158
vn -0.8607 -0.4388 0.2582
vn -0.4432 0.7789 0.4436
vn -0.2581 -0.8551 0.4496
vn -0.3562 -0.8655 0.3521
vn -0.7508 0.4513 0.4823
vn -0.2327 0.8507 0.4714
vn 0.2540 -0.4280 0.8673
vn 0.7529 0.5365 -0.3812
vn 0.2635 0.5233 0.8104
vn 0.3346 0.8873 0.3174
vn 0.2327 0.8507 -0.4714
vn 0.8465 0.2764 0.4550
vn 0.3562 -0.8655 -0.3521
vn 0.4797 -0.8327 0.2766
vn 0.4814 0.3496 -0.8037
vn 0.3495 0.4572 -0.8178
vn 0.3346 -0.8873 0.3174
vn 0.2327 -0.8507 -0.4714
vn 0.3562 0.8655 -0.3521
vn 0.4797 0.8327 0.2766
vn 0.3853 0.4573 0.8015
vn 0.2620 -0.4107 0.8733
vn 0.2752 -0.4110 -0.8691
vn 0.3742 -0.2909 -0.8805
vn 0.9186 -0.2737 0.2851
vn 0.2602 -0.4240 0.8675
vn 0.8607 -0.4388 -0.2582
vn 0.2620 0.4107 0.8733
vn 0.2752 0.4110 -0.8691
vn 0.3742 0.2909 -0.8805
vn 0.9186 0.2737 0.2851
vn 0.2602 0.4240 0.8675
vn 0.8607 0.4388 -0.2582
vn 0.7529 -0.5365 -0.3812
vn 0.2635 -0.5233 0.8104
vn 0.8465 -0.2764 0.4550
vn 0.4814 -0.3496 -0.8037
vn 0.3495 -0.4572 -0.8178
vn 0.3853 -0.4573 0.8015
vn 0.8398 -0.4503 -0.3032
vn 0.9183 0.2845 -0.2755
vn 0.9183 -0.2845 -0.2755
vn 0.4399 0.8369 -0.3256
vn 0.2640 -0.8883 -0.3757
vn 0.4399 -0.8369 -0.3256
vn 0.2640 0.8883 -0.3757
vn 0.8398 0.4503 -0.3032
vn 0.7508 -0.4513 0.4823
vn 0.8632 0.2864 0.4158
vn 0.8632 -0.2864 0.4158
vn 0.4432 0.7789 0.4436
vn 0.2581 -0.8551 0.4496
vn 0.4432 -0.7789 0.4436
vn 0.7508 0.4513 0.4823
vn 0.2581 0.8551 0.4496
vn -0.2540 -0.4280 0.8673
usemtl マテリアル.001
s off
f 47/1/1 4/2/1 27/3/1
f 32/4/2 2/5/2 26/6/2
f 54/7/3 2/5/3 14/8/3
f 40/9/4 18/10/4 45/11/4
f 50/12/5 28/13/5 56/14/5
f 42/15/6 15/16/6 44/17/6
f 52/18/7 17/19/7 53/20/7
f 16/21/8 30/22/8 31/23/8
f 4/2/9 31/23/9 27/3/9
f 53/20/10 1/24/10 49/25/10
f 41/26/11 15/16/11 5/27/11
f 43/28/12 18/10/12 11/29/12
f 51/30/13 14/8/13 10/31/13
f 29/32/14 14/8/14 32/4/14
f 22/33/15 38/34/15 35/35/15
f 33/36/16 24/37/16 37/38/16
f 37/38/17 23/39/17 36/40/17
f 57/41/18 21/42/18 34/43/18
f 25/44/19 39/45/19 38/34/19
f 46/46/20 33/47/20 48/48/20
f 22/49/21 32/4/21 25/50/21
f 27/3/22 24/37/22 20/51/22
f 31/23/23 23/39/23 24/37/23
f 56/52/24 21/42/24 55/53/24
f 25/50/25 26/6/25 19/54/25
f 46/46/26 27/55/26 20/56/26
f 48/48/27 3/57/27 41/58/27
f 38/34/28 1/59/28 17/60/28
f 49/25/29 34/43/29 5/61/29
f 13/62/30 36/40/30 7/63/30
f 3/64/31 37/38/31 13/62/31
f 35/35/32 17/60/32 9/65/32
f 34/43/33 41/58/33 5/61/33
f 21/42/34 47/66/34 46/46/34
f 21/42/35 48/48/35 34/43/35
f 16/67/36 43/68/36 8/69/36
f 3/70/37 44/17/37 41/26/37
f 13/71/38 42/15/38 44/17/38
f 4/2/39 45/11/39 16/21/39
f 28/72/40 40/9/40 47/1/40
f 1/24/41 57/41/41 49/25/41
f 26/6/42 55/73/42 19/54/42
f 39/74/43 55/53/43 57/41/43
f 18/75/44 51/30/44 11/76/44
f 15/77/45 49/78/45 5/79/45
f 15/80/46 52/18/46 53/20/46
f 2/5/47 56/14/47 26/6/47
f 18/75/48 50/12/48 54/7/48
f 58/81/49 61/82/49 60/83/49
f 61/84/50 64/85/50 60/86/50
f 65/87/51 62/88/51 64/89/51
f 63/90/52 58/91/52 62/92/52
f 60/93/53 62/94/53 58/95/53
f 61/96/54 63/97/54 65/98/54
f 98/99/55 69/100/55 93/101/55
f 87/102/56 67/103/56 73/104/56
f 103/105/57 67/103/57 101/106/57
f 77/107/58 93/108/58 96/109/58
f 85/110/59 101/111/59 105/112/59
f 74/113/60 42/15/60 95/114/60
f 76/115/61 52/116/61 102/117/61
f 30/22/62 75/118/62 86/119/62
f 86/119/63 69/120/63 84/121/63
f 66/122/64 102/117/64 100/123/64
f 94/124/65 74/113/65 95/114/65
f 43/125/66 77/126/66 96/127/66
f 51/30/67 73/104/67 103/105/67
f 29/128/68 73/129/68 10/130/68
f 91/131/69 22/33/69 35/35/69
f 88/132/70 81/133/70 79/134/70
f 90/135/71 23/136/71 81/133/71
f 106/137/72 80/138/72 104/139/72
f 92/140/73 82/141/73 91/131/73
f 88/132/74 97/142/74 99/143/74
f 22/33/75 87/144/75 29/128/75
f 81/145/76 84/121/76 79/146/76
f 23/39/77 86/119/77 81/145/77
f 80/138/78 105/112/78 104/139/78
f 82/141/79 83/147/79 87/144/79
f 97/148/80 84/149/80 98/99/80
f 68/150/81 99/143/81 94/124/81
f 66/122/82 91/131/82 76/115/82
f 100/123/83 89/151/83 106/152/83
f 72/153/84 36/154/84 90/135/84
f 68/150/85 90/135/85 88/132/85
f 76/115/86 35/35/86 9/65/86
f 94/124/87 89/155/87 70/156/87
f 80/138/88 98/99/88 85/110/88
f 99/157/89 80/138/89 89/158/89
f 43/125/90 75/159/90 8/160/90
f 68/150/91 95/114/91 72/153/91
f 72/153/92 42/15/92 7/161/92
f 96/127/93 69/100/93 75/159/93
f 85/110/94 93/101/94 71/162/94
f 66/122/95 106/152/95 92/140/95
f 104/139/96 83/163/96 78/164/96
f 92/140/97 104/165/97 78/166/97
f 51/30/98 77/167/98 11/76/98
f 100/123/99 74/168/99 70/169/99
f 74/168/100 52/116/100 12/170/100
f 105/112/101 67/171/101 83/163/101
f 77/167/102 101/106/102 71/172/102
f 107/173/51 110/174/51 108/175/51
f 113/176/50 110/177/50 109/178/50
f 111/179/49 114/180/49 113/181/49
f 107/182/103 112/183/103 111/184/103
f 109/185/53 111/186/53 113/187/53
f 112/188/54 110/189/54 114/190/54
f 47/1/104 40/9/104 4/2/104
f 32/4/105 14/8/105 2/5/105
f 54/7/106 50/12/106 2/5/106
f 40/9/107 6/191/107 18/10/107
f 50/12/108 6/192/108 28/13/108
f 42/15/109 12/193/109 15/16/109
f 52/18/110 9/194/110 17/19/110
f 16/21/111 8/195/111 30/22/111
f 4/2/112 16/21/112 31/23/112
f 53/20/113 17/19/113 1/24/113
f 41/26/114 44/17/114 15/16/114
f 43/28/115 45/11/115 18/10/115
f 51/30/116 54/7/116 14/8/116
f 29/32/117 10/31/117 14/8/117
f 22/33/118 25/44/118 38/34/118
f 33/36/119 20/51/119 24/37/119
f 37/38/120 24/37/120 23/39/120
f 57/41/121 55/53/121 21/42/121
f 25/44/122 19/196/122 39/45/122
f 46/46/123 20/56/123 33/47/123
f 22/49/124 29/32/124 32/4/124
f 27/3/125 31/23/125 24/37/125
f 31/23/126 30/22/126 23/39/126
f 56/52/127 28/197/127 21/42/127
f 25/50/128 32/4/128 26/6/128
f 46/46/129 47/66/129 27/55/129
f 48/48/130 33/47/130 3/57/130
f 38/34/131 39/45/131 1/59/131
f 49/25/132 57/41/132 34/43/132
f 13/62/133 37/38/133 36/40/133
f 3/64/134 33/36/134 37/38/134
f 35/35/135 38/34/135 17/60/135
f 34/43/136 48/48/136 41/58/136
f 21/42/137 28/197/137 47/66/137
f 21/42/138 46/46/138 48/48/138
f 16/67/139 45/198/139 43/68/139
f 3/70/140 13/71/140 44/17/140
f 13/71/141 7/161/141 42/15/141
f 4/2/142 40/9/142 45/11/142
f 28/72/143 6/191/143 40/9/143
f 1/24/144 39/74/144 57/41/144
f 26/6/145 56/14/145 55/73/145
f 39/74/146 19/199/146 55/53/146
f 18/75/147 54/7/147 51/30/147
f 15/77/148 53/200/148 49/78/148
f 15/80/149 12/201/149 52/18/149
f 2/5/150 50/12/150 56/14/150
f 18/75/151 6/192/151 50/12/151
f 58/81/49 59/202/49 61/82/49
f 61/84/50 65/203/50 64/85/50
f 65/87/51 63/204/51 62/88/51
f 63/90/152 59/205/152 58/91/152
f 60/93/53 64/206/53 62/94/53
f 61/96/54 59/207/54 63/97/54
f 98/99/153 84/149/153 69/100/153
f 87/102/154 83/208/154 67/103/154
f 103/105/155 73/104/155 67/103/155
f 77/107/156 71/209/156 93/108/156
f 85/110/157 71/162/157 101/111/157
f 74/113/158 12/193/158 42/15/158
f 76/115/159 9/65/159 52/116/159
f 30/22/160 8/195/160 75/118/160
f 86/119/161 75/118/161 69/120/161
f 66/122/162 76/115/162 102/117/162
f 94/124/163 70/156/163 74/113/163
f 43/125/164 11/210/164 77/126/164
f 51/30/165 10/31/165 73/104/165
f 29/128/166 87/144/166 73/129/166
f 91/131/167 82/141/167 22/33/167
f 88/132/168 90/135/168 81/133/168
f 90/135/169 36/154/169 23/136/169
f 106/137/170 89/158/170 80/138/170
f 92/140/171 78/166/171 82/141/171
f 88/132/172 79/134/172 97/142/172
f 22/33/173 82/141/173 87/144/173
f 81/145/174 86/119/174 84/121/174
f 23/39/175 30/22/175 86/119/175
f 80/138/176 85/110/176 105/112/176
f 82/141/177 78/166/177 83/147/177
f 97/148/178 79/211/178 84/149/178
f 68/150/179 88/132/179 99/143/179
f 66/122/180 92/140/180 91/131/180
f 100/123/181 70/169/181 89/151/181
f 72/153/182 7/161/182 36/154/182
f 68/150/183 72/153/183 90/135/183
f 76/115/184 91/131/184 35/35/184
f 94/124/185 99/143/185 89/155/185
f 80/138/186 97/148/186 98/99/186
f 99/157/187 97/148/187 80/138/187
f 43/125/188 96/127/188 75/159/188
f 68/150/189 94/124/189 95/114/189
f 72/153/190 95/114/190 42/15/190
f 96/127/191 93/101/191 69/100/191
f 85/110/192 98/99/192 93/101/192
f 66/122/193 100/123/193 106/152/193
f 104/139/194 105/112/194 83/163/194
f 92/140/195 106/152/195 104/165/195
f 51/30/196 103/105/196 77/167/196
f 100/123/197 102/117/197 74/168/197
f 74/168/198 102/117/198 52/116/198
f 105/112/199 101/111/199 67/171/199
f 77/167/200 103/105/200 101/106/200
f 107/173/51 109/212/51 110/174/51
f 113/176/50 114/213/50 110/177/50
f 111/179/49 112/214/49 114/180/49
f 107/182/201 108/215/201 112/183/201
f 109/185/53 107/216/53 111/186/53
f 112/188/54 108/217/54 110/189/54
