# Blender v3.5.0 OBJ File: 'AL3夏課題.blend'
# www.blender.org
mtllib sight.mtl
o 平面.001
v 1.914033 -2.251388 -0.000000
v 1.568958 -2.414034 -0.000000
v 0.841882 -2.273367 -0.000000
v 1.162341 -2.416232 -0.000000
v 2.201962 -2.040386 -0.000000
v 2.358015 -1.813999 -0.000000
v 2.430546 -1.534862 -0.000000
v 2.307462 -1.027140 -0.000000
v 2.118440 -1.475518 -0.000000
v 1.949200 -1.805207 -0.000000
v 1.819522 -2.031594 -0.000000
v 1.481040 -2.112918 -0.000000
v 1.162340 -2.117314 -0.000000
v -1.914033 -2.251388 -0.000000
v -1.568958 -2.414034 -0.000000
v -0.841882 -2.273367 -0.000000
v -1.162341 -2.416232 -0.000000
v -2.201962 -2.040386 -0.000000
v -2.358015 -1.813999 -0.000000
v -2.430546 -1.534862 -0.000000
v -2.307462 -1.027140 -0.000000
v -2.118440 -1.475518 -0.000000
v -1.949200 -1.805207 -0.000000
v -1.819522 -2.031594 -0.000000
v -1.481040 -2.112918 -0.000000
v -1.162340 -2.117314 -0.000000
v 1.914033 2.251388 0.000000
v 1.568958 2.414034 0.000000
v 0.841882 2.273367 0.000000
v 1.162341 2.416232 0.000000
v 2.201962 2.040386 0.000000
v 2.358015 1.813999 -0.000000
v 2.430546 1.534862 -0.000000
v 2.307462 1.027140 -0.000000
v 2.118440 1.475518 -0.000000
v 1.949200 1.805207 -0.000000
v 1.819522 2.031594 0.000000
v 1.481040 2.112918 0.000000
v 1.162340 2.117314 0.000000
v -1.914033 2.251388 0.000000
v -1.568958 2.414034 0.000000
v -0.841882 2.273367 0.000000
v -1.162341 2.416232 0.000000
v -2.201962 2.040386 0.000000
v -2.358015 1.813999 -0.000000
v -2.430546 1.534862 -0.000000
v -2.307462 1.027140 -0.000000
v -2.118440 1.475518 -0.000000
v -1.949200 1.805207 -0.000000
v -1.819522 2.031594 0.000000
v -1.481040 2.112918 0.000000
v -1.162340 2.117314 0.000000
v 1.914033 2.251388 -0.000000
v 1.568958 2.414034 -0.000000
v 0.841882 2.273367 -0.000000
v 1.162341 2.416232 -0.000000
v 2.201962 2.040386 -0.000000
v 2.358015 1.813999 0.000000
v 2.430546 1.534862 0.000000
v 2.307462 1.027140 0.000000
v 2.118440 1.475518 0.000000
v 1.949200 1.805207 0.000000
v 1.819522 2.031594 -0.000000
v 1.481040 2.112918 -0.000000
v 1.162340 2.117314 -0.000000
v -1.914033 2.251388 -0.000000
v -1.568958 2.414034 -0.000000
v -0.841882 2.273367 -0.000000
v -1.162341 2.416232 -0.000000
v -2.201962 2.040386 -0.000000
v -2.358015 1.813999 0.000000
v -2.430546 1.534862 0.000000
v -2.307462 1.027140 0.000000
v -2.118440 1.475518 0.000000
v -1.949200 1.805207 0.000000
v -1.819522 2.031594 -0.000000
v -1.481040 2.112918 -0.000000
v -1.162340 2.117314 -0.000000
v 1.914033 -2.251388 0.000000
v 1.568958 -2.414034 0.000000
v 0.841882 -2.273367 0.000000
v 1.162341 -2.416232 0.000000
v 2.201962 -2.040386 0.000000
v 2.358015 -1.813999 0.000000
v 2.430546 -1.534862 0.000000
v 2.307462 -1.027140 0.000000
v 2.118440 -1.475518 0.000000
v 1.949200 -1.805207 0.000000
v 1.819522 -2.031594 0.000000
v 1.481040 -2.112918 0.000000
v 1.162340 -2.117314 0.000000
v -1.914033 -2.251388 0.000000
v -1.568958 -2.414034 0.000000
v -0.841882 -2.273367 0.000000
v -1.162341 -2.416232 0.000000
v -2.201962 -2.040386 0.000000
v -2.358015 -1.813999 0.000000
v -2.430546 -1.534862 0.000000
v -2.307462 -1.027140 0.000000
v -2.118440 -1.475518 0.000000
v -1.949200 -1.805207 0.000000
v -1.819522 -2.031594 0.000000
v -1.481040 -2.112918 0.000000
v -1.162340 -2.117314 0.000000
vt 0.182858 0.500000
vt 0.125904 0.612916
vt 0.061607 0.561111
vt 0.018550 0.622469
vt 0.089121 0.701933
vt 0.000000 0.691482
vt 0.066130 0.765724
vt 0.006699 0.784016
vt 0.107016 0.846435
vt 0.032593 0.879724
vt 0.159803 0.910276
vt 0.100617 0.960603
vt 0.182858 1.000000
vt 0.365716 0.500000
vt 0.244465 0.438889
vt 0.308762 0.387084
vt 0.201408 0.377531
vt 0.271978 0.298067
vt 0.182858 0.308518
vt 0.248987 0.234276
vt 0.189557 0.215984
vt 0.289873 0.153565
vt 0.215451 0.120276
vt 0.342660 0.089724
vt 0.283475 0.039397
vt 0.365716 0.000000
vt 0.914289 0.500000
vt 0.793039 0.438889
vt 0.857336 0.387084
vt 0.749982 0.377531
vt 0.820552 0.298067
vt 0.731431 0.308518
vt 0.797561 0.234276
vt 0.738130 0.215984
vt 0.838447 0.153565
vt 0.764025 0.120276
vt 0.891234 0.089724
vt 0.832049 0.039397
vt 0.914289 0.000000
vt 0.548573 0.000000
vt 0.491620 0.112916
vt 0.427323 0.061111
vt 0.384266 0.122469
vt 0.454836 0.201933
vt 0.365716 0.191482
vt 0.431845 0.265724
vt 0.372415 0.284016
vt 0.472731 0.346435
vt 0.398309 0.379724
vt 0.525518 0.410277
vt 0.466333 0.460603
vt 0.548573 0.500000
vt 0.731431 0.000000
vt 0.674478 0.112916
vt 0.610181 0.061111
vt 0.567124 0.122469
vt 0.637694 0.201933
vt 0.548573 0.191482
vt 0.614703 0.265724
vt 0.555272 0.284016
vt 0.655589 0.346435
vt 0.581167 0.379724
vt 0.708376 0.410277
vt 0.649191 0.460603
vt 0.731431 0.500000
vt 0.365716 1.000000
vt 0.244465 0.938889
vt 0.308762 0.887084
vt 0.201408 0.877531
vt 0.271978 0.798067
vt 0.182858 0.808518
vt 0.248987 0.734276
vt 0.189557 0.715984
vt 0.289873 0.653565
vt 0.215451 0.620276
vt 0.342660 0.589724
vt 0.283475 0.539397
vt 0.365716 0.500000
vt 0.182858 0.500000
vt 0.061607 0.438889
vt 0.125904 0.387084
vt 0.018550 0.377531
vt 0.089121 0.298067
vt 0.000000 0.308518
vt 0.066130 0.234276
vt 0.006699 0.215984
vt 0.107016 0.153565
vt 0.032593 0.120276
vt 0.159803 0.089724
vt 0.100617 0.039397
vt 0.182858 0.000000
vt 0.548573 0.500000
vt 0.491620 0.612916
vt 0.427323 0.561111
vt 0.384266 0.622469
vt 0.454836 0.701933
vt 0.365716 0.691482
vt 0.431845 0.765724
vt 0.372415 0.784016
vt 0.472731 0.846435
vt 0.398309 0.879724
vt 0.525518 0.910276
vt 0.466333 0.960603
vt 0.548573 1.000000
vn 0.0000 0.0000 1.0000
vn 0.0000 -0.0000 -1.0000
usemtl マテリアル.003
s off
f 8/1/1 9/2/1 7/3/1
f 7/3/1 9/2/1 6/4/1
f 9/2/1 10/5/1 6/4/1
f 6/4/1 10/5/1 5/6/1
f 10/5/1 11/7/1 5/6/1
f 5/6/1 11/7/1 1/8/1
f 11/7/1 12/9/1 1/8/1
f 1/8/1 12/9/1 2/10/1
f 12/9/1 13/11/1 2/10/1
f 2/10/1 13/11/1 4/12/1
f 4/12/1 13/11/1 3/13/1
f 21/14/1 20/15/1 22/16/1
f 20/15/1 19/17/1 22/16/1
f 22/16/1 19/17/1 23/18/1
f 19/17/1 18/19/1 23/18/1
f 23/18/1 18/19/1 24/20/1
f 18/19/1 14/21/1 24/20/1
f 24/20/1 14/21/1 25/22/1
f 14/21/1 15/23/1 25/22/1
f 25/22/1 15/23/1 26/24/1
f 15/23/1 17/25/1 26/24/1
f 17/25/1 16/26/1 26/24/1
f 34/27/1 33/28/1 35/29/1
f 33/28/1 32/30/1 35/29/1
f 35/29/1 32/30/1 36/31/1
f 32/30/1 31/32/1 36/31/1
f 36/31/1 31/32/1 37/33/1
f 31/32/1 27/34/1 37/33/1
f 37/33/1 27/34/1 38/35/1
f 27/34/1 28/36/1 38/35/1
f 38/35/1 28/36/1 39/37/1
f 28/36/1 30/38/1 39/37/1
f 30/38/1 29/39/1 39/37/1
f 47/40/1 48/41/1 46/42/1
f 46/42/1 48/41/1 45/43/1
f 48/41/1 49/44/1 45/43/1
f 45/43/1 49/44/1 44/45/1
f 49/44/1 50/46/1 44/45/1
f 44/45/1 50/46/1 40/47/1
f 50/46/1 51/48/1 40/47/1
f 40/47/1 51/48/1 41/49/1
f 51/48/1 52/50/1 41/49/1
f 41/49/1 52/50/1 43/51/1
f 43/51/1 52/50/1 42/52/1
usemtl マテリアル.002
f 60/53/2 61/54/2 59/55/2
f 59/55/2 61/54/2 58/56/2
f 61/54/2 62/57/2 58/56/2
f 58/56/2 62/57/2 57/58/2
f 62/57/2 63/59/2 57/58/2
f 57/58/2 63/59/2 53/60/2
f 63/59/2 64/61/2 53/60/2
f 53/60/2 64/61/2 54/62/2
f 64/61/2 65/63/2 54/62/2
f 54/62/2 65/63/2 56/64/2
f 56/64/2 65/63/2 55/65/2
f 73/66/2 72/67/2 74/68/2
f 72/67/2 71/69/2 74/68/2
f 74/68/2 71/69/2 75/70/2
f 71/69/2 70/71/2 75/70/2
f 75/70/2 70/71/2 76/72/2
f 70/71/2 66/73/2 76/72/2
f 76/72/2 66/73/2 77/74/2
f 66/73/2 67/75/2 77/74/2
f 77/74/2 67/75/2 78/76/2
f 67/75/2 69/77/2 78/76/2
f 69/77/2 68/78/2 78/76/2
f 86/79/2 85/80/2 87/81/2
f 85/80/2 84/82/2 87/81/2
f 87/81/2 84/82/2 88/83/2
f 84/82/2 83/84/2 88/83/2
f 88/83/2 83/84/2 89/85/2
f 83/84/2 79/86/2 89/85/2
f 89/85/2 79/86/2 90/87/2
f 79/86/2 80/88/2 90/87/2
f 90/87/2 80/88/2 91/89/2
f 80/88/2 82/90/2 91/89/2
f 82/90/2 81/91/2 91/89/2
f 99/92/2 100/93/2 98/94/2
f 98/94/2 100/93/2 97/95/2
f 100/93/2 101/96/2 97/95/2
f 97/95/2 101/96/2 96/97/2
f 101/96/2 102/98/2 96/97/2
f 96/97/2 102/98/2 92/99/2
f 102/98/2 103/100/2 92/99/2
f 92/99/2 103/100/2 93/101/2
f 103/100/2 104/102/2 93/101/2
f 93/101/2 104/102/2 95/103/2
f 95/103/2 104/102/2 94/104/2
