# Blender v3.5.0 OBJ File: 'AL3夏課題.blend'
# www.blender.org
mtllib bullet.mtl
o 円錐
v 0.000000 0.660000 -0.600000
v 0.000000 -0.000000 0.600000
v 0.117054 0.588471 -0.600000
v 0.252570 0.609759 -0.600000
v 0.333342 0.498882 -0.600000
v 0.466692 0.466692 -0.600000
v 0.498882 0.333342 -0.600000
v 0.609759 0.252570 -0.600000
v 0.588471 0.117054 -0.600000
v 0.660000 0.000000 -0.600000
v 0.588471 -0.117054 -0.600000
v 0.609759 -0.252570 -0.600000
v 0.498882 -0.333342 -0.600000
v 0.466692 -0.466692 -0.600000
v 0.333342 -0.498882 -0.600000
v 0.252570 -0.609759 -0.600000
v 0.117054 -0.588471 -0.600000
v 0.000000 -0.660000 -0.600000
v -0.117054 -0.588471 -0.600000
v -0.252570 -0.609759 -0.600000
v -0.333342 -0.498882 -0.600000
v -0.466692 -0.466692 -0.600000
v -0.498882 -0.333342 -0.600000
v -0.609759 -0.252570 -0.600000
v -0.588471 -0.117054 -0.600000
v -0.660000 0.000000 -0.600000
v -0.588471 0.117054 -0.600000
v -0.609759 0.252570 -0.600000
v -0.498882 0.333342 -0.600000
v -0.466692 0.466692 -0.600000
v -0.333342 0.498882 -0.600000
v -0.252570 0.609759 -0.600000
v -0.117054 0.588471 -0.600000
vt 0.250000 0.490000
vt 0.250000 0.250000
vt 0.296822 0.485388
vt 0.341844 0.471731
vt 0.383337 0.449553
vt 0.419706 0.419706
vt 0.449553 0.383337
vt 0.471731 0.341844
vt 0.485388 0.296822
vt 0.490000 0.250000
vt 0.485388 0.203178
vt 0.471731 0.158156
vt 0.449553 0.116663
vt 0.419706 0.080294
vt 0.383337 0.050447
vt 0.341844 0.028269
vt 0.296822 0.014612
vt 0.250000 0.010000
vt 0.203178 0.014612
vt 0.158156 0.028269
vt 0.116663 0.050447
vt 0.080294 0.080294
vt 0.050447 0.116663
vt 0.028269 0.158156
vt 0.014612 0.203178
vt 0.010000 0.250000
vt 0.014612 0.296822
vt 0.028269 0.341844
vt 0.050447 0.383337
vt 0.080294 0.419706
vt 0.116663 0.449553
vt 0.158156 0.471731
vt 0.796822 0.014612
vt 0.514612 0.203178
vt 0.703178 0.485388
vt 0.203178 0.485388
vt 0.750000 0.490000
vt 0.796822 0.485388
vt 0.841844 0.471731
vt 0.883337 0.449553
vt 0.919706 0.419706
vt 0.949553 0.383337
vt 0.971731 0.341844
vt 0.985388 0.296822
vt 0.990000 0.250000
vt 0.985388 0.203178
vt 0.971731 0.158156
vt 0.949553 0.116663
vt 0.919706 0.080294
vt 0.883337 0.050447
vt 0.841844 0.028269
vt 0.750000 0.010000
vt 0.703178 0.014612
vt 0.658156 0.028269
vt 0.616663 0.050447
vt 0.580294 0.080294
vt 0.550447 0.116663
vt 0.528269 0.158156
vt 0.510000 0.250000
vt 0.514612 0.296822
vt 0.528269 0.341844
vt 0.550447 0.383337
vt 0.580294 0.419706
vt 0.616663 0.449553
vt 0.658156 0.471731
vn 0.4720 0.7725 0.4249
vn -0.1405 0.8943 0.4249
vn 0.7317 0.5330 0.4249
vn 0.2124 0.8800 0.4249
vn 0.8800 0.2124 0.4248
vn 0.5330 0.7317 0.4249
vn 0.8943 -0.1405 0.4249
vn 0.7725 0.4720 0.4249
vn 0.7725 -0.4720 0.4249
vn 0.8943 0.1405 0.4249
vn 0.5330 -0.7317 0.4249
vn 0.8800 -0.2124 0.4249
vn 0.2124 -0.8800 0.4248
vn 0.7317 -0.5330 0.4249
vn -0.1405 -0.8943 0.4249
vn 0.4720 -0.7725 0.4249
vn -0.4720 -0.7725 0.4249
vn 0.1405 -0.8943 0.4249
vn -0.7317 -0.5330 0.4249
vn -0.2124 -0.8800 0.4248
vn -0.8800 -0.2124 0.4249
vn -0.5330 -0.7317 0.4249
vn -0.8943 0.1405 0.4249
vn -0.7725 -0.4720 0.4249
vn -0.7725 0.4720 0.4249
vn -0.8943 -0.1405 0.4249
vn -0.5330 0.7317 0.4249
vn -0.8800 0.2124 0.4248
vn -0.2124 0.8800 0.4249
vn -0.7317 0.5330 0.4249
vn -0.0000 0.0000 -1.0000
vn 0.1405 0.8943 0.4249
vn -0.4720 0.7725 0.4249
usemtl マテリアル
s 1
f 1/1/1 2/2/1 3/3/1
f 3/3/2 2/2/2 4/4/2
f 4/4/3 2/2/3 5/5/3
f 5/5/4 2/2/4 6/6/4
f 6/6/5 2/2/5 7/7/5
f 7/7/6 2/2/6 8/8/6
f 8/8/7 2/2/7 9/9/7
f 9/9/8 2/2/8 10/10/8
f 10/10/9 2/2/9 11/11/9
f 11/11/10 2/2/10 12/12/10
f 12/12/11 2/2/11 13/13/11
f 13/13/12 2/2/12 14/14/12
f 14/14/13 2/2/13 15/15/13
f 15/15/14 2/2/14 16/16/14
f 16/16/15 2/2/15 17/17/15
f 17/17/16 2/2/16 18/18/16
f 18/18/17 2/2/17 19/19/17
f 19/19/18 2/2/18 20/20/18
f 20/20/19 2/2/19 21/21/19
f 21/21/20 2/2/20 22/22/20
f 22/22/21 2/2/21 23/23/21
f 23/23/22 2/2/22 24/24/22
f 24/24/23 2/2/23 25/25/23
f 25/25/24 2/2/24 26/26/24
f 26/26/25 2/2/25 27/27/25
f 27/27/26 2/2/26 28/28/26
f 28/28/27 2/2/27 29/29/27
f 29/29/28 2/2/28 30/30/28
f 30/30/29 2/2/29 31/31/29
f 31/31/30 2/2/30 32/32/30
f 17/33/31 25/34/31 33/35/31
f 32/32/32 2/2/32 33/36/32
f 33/36/33 2/2/33 1/1/33
f 33/35/31 1/37/31 3/38/31
f 3/38/31 4/39/31 5/40/31
f 5/40/31 6/41/31 7/42/31
f 7/42/31 8/43/31 9/44/31
f 9/44/31 10/45/31 11/46/31
f 11/46/31 12/47/31 13/48/31
f 13/48/31 14/49/31 15/50/31
f 15/50/31 16/51/31 17/33/31
f 17/33/31 18/52/31 19/53/31
f 19/53/31 20/54/31 21/55/31
f 21/55/31 22/56/31 23/57/31
f 23/57/31 24/58/31 25/34/31
f 25/34/31 26/59/31 27/60/31
f 27/60/31 28/61/31 29/62/31
f 29/62/31 30/63/31 31/64/31
f 31/64/31 32/65/31 33/35/31
f 33/35/31 3/38/31 9/44/31
f 3/38/31 5/40/31 9/44/31
f 5/40/31 7/42/31 9/44/31
f 9/44/31 11/46/31 17/33/31
f 11/46/31 13/48/31 17/33/31
f 13/48/31 15/50/31 17/33/31
f 17/33/31 19/53/31 25/34/31
f 19/53/31 21/55/31 25/34/31
f 21/55/31 23/57/31 25/34/31
f 25/34/31 27/60/31 33/35/31
f 27/60/31 29/62/31 33/35/31
f 29/62/31 31/64/31 33/35/31
f 33/35/31 9/44/31 17/33/31
